<svg width="78.453125" height="15.431763" viewBox="0 0 78.4531 15.4318" fill="none" xmlns="http://www.w3.org/2000/svg" xmlns:xlink="http://www.w3.org/1999/xlink">
	<defs/>
	<path id="VÐRSTKA" d="M15.55 2.63C15.16 2.63 14.83 2.5 14.56 2.25Q14.35 2.04 14.25 1.78Q14.16 1.56 14.16 1.31C14.16 0.95 14.3 0.64 14.56 0.38Q14.74 0.21 14.95 0.12L14.95 0.12L14.95 0.12Q15.22 0 15.55 0Q15.84 0 16.09 0.1Q16.32 0.2 16.51 0.38C16.78 0.64 16.91 0.95 16.91 1.31C16.91 1.68 16.78 1.99 16.51 2.25Q16.32 2.43 16.09 2.52Q15.84 2.63 15.55 2.63ZM19.16 2.63C18.77 2.63 18.45 2.5 18.18 2.25Q17.96 2.04 17.86 1.78Q17.77 1.56 17.77 1.31Q17.77 1.06 17.86 0.84Q17.96 0.59 18.18 0.38C18.45 0.12 18.77 0 19.16 0Q19.46 0 19.71 0.1L19.71 0.1Q19.93 0.2 20.12 0.38C20.39 0.64 20.52 0.95 20.52 1.31C20.52 1.68 20.39 1.99 20.12 2.25Q19.93 2.43 19.71 2.52Q19.46 2.63 19.16 2.63ZM40.03 7.29C40 6.91 39.86 6.62 39.6 6.4C39.35 6.19 38.97 6.09 38.46 6.09C38.14 6.09 37.87 6.13 37.66 6.21C37.46 6.28 37.3 6.39 37.21 6.52Q37.14 6.6 37.11 6.69Q37.06 6.82 37.05 6.97C37.05 6.99 37.05 7.01 37.05 7.02C37.05 7.14 37.08 7.25 37.13 7.35C37.19 7.46 37.28 7.56 37.41 7.65C37.54 7.74 37.7 7.82 37.9 7.89C38.1 7.96 38.34 8.03 38.62 8.09L39.57 8.29C40.22 8.43 40.77 8.61 41.23 8.83C41.69 9.05 42.06 9.32 42.35 9.62C42.64 9.92 42.86 10.26 43 10.63C43.14 11.01 43.21 11.42 43.21 11.86C43.21 12.62 43.02 13.27 42.64 13.8C42.26 14.33 41.72 14.74 41.01 15.01C40.31 15.29 39.47 15.43 38.48 15.43C37.47 15.43 36.59 15.28 35.84 14.98C35.09 14.68 34.5 14.22 34.09 13.6C33.67 12.97 33.46 12.17 33.46 11.2L36.46 11.2C36.48 11.56 36.57 11.85 36.73 12.1C36.89 12.34 37.11 12.52 37.4 12.65Q37.84 12.84 38.44 12.84C38.78 12.84 39.06 12.79 39.28 12.71C39.51 12.63 39.68 12.51 39.8 12.36C39.92 12.22 39.98 12.05 39.98 11.86Q39.98 11.71 39.93 11.59Q39.89 11.48 39.81 11.39C39.7 11.26 39.52 11.14 39.26 11.03C39.01 10.92 38.67 10.82 38.23 10.72L37.07 10.47Q35.53 10.14 34.64 9.35Q34.37 9.12 34.19 8.83Q33.76 8.16 33.76 7.22L33.76 7.2L33.76 7.18Q33.76 6.41 34.05 5.77Q34.17 5.5 34.35 5.26Q34.4 5.19 34.46 5.12L34.46 5.11Q35.05 4.38 36.01 3.96Q37.08 3.5 38.46 3.5Q39.87 3.5 40.9 3.97C41.58 4.28 42.11 4.72 42.48 5.3C42.86 5.86 43.05 6.53 43.05 7.29L40.03 7.29ZM3.56 3.65L5.95 11.86L6.04 11.86L8.43 3.65L12 3.65L8.15 15.29L3.84 15.29L0 3.65L3.56 3.65ZM13.12 15.29L13.12 3.65L21.5 3.65L21.5 6.2L16.27 6.2L16.27 8.2L21.07 8.2L21.07 10.75L16.27 10.75L16.27 12.75L21.48 12.75L21.48 15.29L13.12 15.29ZM23.07 15.29L23.07 3.65L28.09 3.65C28.96 3.65 29.71 3.81 30.36 4.13Q30.97 4.42 31.4 4.88L31.4 4.88Q31.67 5.15 31.87 5.48Q32.41 6.37 32.41 7.61C32.41 8.44 32.22 9.14 31.85 9.72C31.51 10.25 31.04 10.66 30.43 10.95L32.8 15.29L29.36 15.29L27.32 11.45L26.23 11.45L26.23 15.29L23.07 15.29ZM44.09 6.2L44.09 3.65L54.21 3.65L54.21 6.2L50.71 6.2L50.71 15.29L47.59 15.29L47.59 6.2L44.09 6.2ZM55.4 15.29L55.4 3.65L58.56 3.65L58.56 8.36L58.72 8.36L62.22 3.65L65.9 3.65L61.97 8.84L65.99 15.29L62.22 15.29L59.6 10.93L58.56 12.29L58.56 15.29L55.4 15.29ZM69.86 15.29L66.45 15.29L70.29 3.65L74.61 3.65L78.45 15.29L75.04 15.29L74.37 13.06L70.53 13.06L69.86 15.29ZM26.23 9L27.34 9C27.71 9 28.03 8.95 28.29 8.86Q28.62 8.74 28.82 8.51L28.82 8.51Q28.86 8.46 28.9 8.41C29.04 8.21 29.11 7.94 29.11 7.61C29.11 7.28 29.04 7 28.9 6.8C28.76 6.58 28.56 6.43 28.29 6.33C28.03 6.23 27.71 6.18 27.34 6.18L26.23 6.18L26.23 9ZM73.65 10.7L72.49 6.86L72.4 6.86L71.24 10.7L73.65 10.7Z" fill="#FFFFFF" fill-opacity="1.000000" fill-rule="evenodd"/>
</svg>

